<svg width="353pt" height="139pt" viewBox="0.00 0.00 352.81 139.00" xmlns="http://www.w3.org/2000/svg" xmlns:xlink="http://www.w3.org/1999/xlink">
<g id="graph0" class="graph" transform="scale(1 1) rotate(0) translate(4 135)">
<title>NFA</title>
<polygon fill="white" stroke="none" points="-4,4 -4,-135 348.81,-135 348.81,4 -4,4"/>
<!-- start -->
<g id="node1" class="node">
<title>start</title>
<ellipse fill="black" stroke="black" cx="1.8" cy="-22" rx="1.8" ry="1.8"/>
</g>
<!-- 1 -->
<g id="node2" class="node">
<title>1</title>
<ellipse fill="none" stroke="black" cx="62.6" cy="-22" rx="18" ry="18"/>
<ellipse fill="none" stroke="black" cx="62.6" cy="-22" rx="22" ry="22"/>
<text text-anchor="middle" x="62.6" y="-17.8" font-family="Times,serif" font-size="14.00">1</text>
</g>
<!-- start&#45;&gt;1 -->
<g id="edge1" class="edge">
<title>start-&gt;1</title>
<path fill="none" stroke="black" d="M3.82,-22C7.09,-22 17.76,-22 29.06,-22"/>
<polygon fill="black" stroke="black" points="28.8,-25.5 38.8,-22 28.8,-18.5 28.8,-25.5"/>
</g>
<!-- 2 -->
<g id="node3" class="node">
<title>2</title>
<ellipse fill="none" stroke="black" cx="148.81" cy="-70" rx="18" ry="18"/>
<ellipse fill="none" stroke="black" cx="148.81" cy="-70" rx="22" ry="22"/>
<text text-anchor="middle" x="148.81" y="-65.8" font-family="Times,serif" font-size="14.00">2</text>
</g>
<!-- 1&#45;&gt;2 -->
<g id="edge2" class="edge">
<title>1-&gt;2</title>
<path fill="none" stroke="black" d="M82.29,-32.65C93.19,-38.87 107.17,-46.83 119.41,-53.81"/>
<polygon fill="black" stroke="black" points="117.44,-56.72 127.86,-58.63 120.91,-50.63 117.44,-56.72"/>
<text text-anchor="middle" x="105.71" y="-51.64" font-family="Times,serif" font-size="14.00">a</text>
</g>
<!-- 3 -->
<g id="node4" class="node">
<title>3</title>
<ellipse fill="none" stroke="black" cx="322.81" cy="-52" rx="18" ry="18"/>
<ellipse fill="none" stroke="black" cx="322.81" cy="-52" rx="22" ry="22"/>
<text text-anchor="middle" x="322.81" y="-47.8" font-family="Times,serif" font-size="14.00">3</text>
</g>
<!-- 1&#45;&gt;3 -->
<g id="edge3" class="edge">
<title>1-&gt;3</title>
<path fill="none" stroke="black" d="M84.73,-24.46C129.86,-29.7 235.89,-42.02 289.53,-48.25"/>
<polygon fill="black" stroke="black" points="288.91,-51.7 299.25,-49.38 289.72,-44.75 288.91,-51.7"/>
<text text-anchor="middle" x="192.31" y="-41.55" font-family="Times,serif" font-size="14.00">b</text>
</g>
<!-- 2&#45;&gt;2 -->
<g id="edge4" class="edge">
<title>2-&gt;2</title>
<path fill="none" stroke="black" d="M140.93,-90.99C139.96,-101.09 142.58,-110 148.81,-110 152.51,-110 154.94,-106.86 156.1,-102.19"/>
<polygon fill="black" stroke="black" points="159.58,-102.67 156.62,-92.5 152.59,-102.3 159.58,-102.67"/>
<text text-anchor="middle" x="148.81" y="-114.2" font-family="Times,serif" font-size="14.00">a</text>
</g>
<!-- 4 -->
<g id="node5" class="node">
<title>4</title>
<ellipse fill="none" stroke="black" cx="235.81" cy="-109" rx="18" ry="18"/>
<ellipse fill="none" stroke="black" cx="235.81" cy="-109" rx="22" ry="22"/>
<text text-anchor="middle" x="235.81" y="-104.8" font-family="Times,serif" font-size="14.00">4</text>
</g>
<!-- 2&#45;&gt;4 -->
<g id="edge5" class="edge">
<title>2-&gt;4</title>
<path fill="none" stroke="black" d="M164.33,-85.77C171.13,-92.17 179.73,-98.99 188.81,-103 193,-104.85 197.6,-106.18 202.22,-107.12"/>
<polygon fill="black" stroke="black" points="201.63,-110.57 212.03,-108.53 202.63,-103.64 201.63,-110.57"/>
<text text-anchor="middle" x="192.31" y="-109.39" font-family="Times,serif" font-size="14.00">b</text>
</g>
<!-- 3&#45;&gt;2 -->
<g id="edge6" class="edge">
<title>3-&gt;2</title>
<path fill="none" stroke="black" d="M300.67,-53.48C278.88,-55.07 243.92,-57.85 213.81,-61.2 203.48,-62.35 192.23,-63.82 182.1,-65.23"/>
<polygon fill="black" stroke="black" points="181.73,-61.75 172.32,-66.62 182.71,-68.68 181.73,-61.75"/>
<text text-anchor="middle" x="235.81" y="-65.4" font-family="Times,serif" font-size="14.00">a</text>
</g>
<!-- 3&#45;&gt;3 -->
<g id="edge7" class="edge">
<title>3-&gt;3</title>
<path fill="none" stroke="black" d="M314.86,-72.99C313.87,-83.09 316.53,-92 322.81,-92 326.55,-92 329,-88.86 330.17,-84.19"/>
<polygon fill="black" stroke="black" points="333.65,-84.68 330.69,-74.5 326.66,-84.3 333.65,-84.68"/>
<text text-anchor="middle" x="322.81" y="-96.2" font-family="Times,serif" font-size="14.00">b</text>
</g>
<!-- 4&#45;&gt;2 -->
<g id="edge8" class="edge">
<title>4-&gt;2</title>
<path fill="none" stroke="black" d="M218.1,-95.65C211.47,-90.86 203.58,-85.77 195.81,-82.2 191.42,-80.18 186.63,-78.45 181.86,-76.98"/>
<polygon fill="black" stroke="black" points="182.98,-73.65 172.41,-74.4 181.14,-80.41 182.98,-73.65"/>
<text text-anchor="middle" x="192.31" y="-86.4" font-family="Times,serif" font-size="14.00">a</text>
</g>
<!-- 4&#45;&gt;3 -->
<g id="edge9" class="edge">
<title>4-&gt;3</title>
<path fill="none" stroke="black" d="M254.43,-97.19C265.97,-89.45 281.31,-79.16 294.43,-70.36"/>
<polygon fill="black" stroke="black" points="296.32,-73.31 302.67,-64.83 292.42,-67.5 296.32,-73.31"/>
<text text-anchor="middle" x="279.31" y="-86.41" font-family="Times,serif" font-size="14.00">b</text>
</g>
</g>
</svg>